<mxfile host="app.diagrams.net" modified="2023-08-26T23:02:34.626Z" agent="Mozilla/5.0 (Windows NT 10.0; Win64; x64) AppleWebKit/537.36 (KHTML, like Gecko) Chrome/116.0.0.0 Safari/537.36" etag="YqV8EiyqYKMoy-sKruXq" version="21.6.9" type="github">
  <diagram id="C5RBs43oDa-KdzZeNtuy" name="Page-1">
    <mxGraphModel dx="1674" dy="800" grid="1" gridSize="10" guides="1" tooltips="1" connect="1" arrows="1" fold="1" page="1" pageScale="1" pageWidth="827" pageHeight="1169" math="0" shadow="0">
      <root>
        <mxCell id="WIyWlLk6GJQsqaUBKTNV-0" />
        <mxCell id="WIyWlLk6GJQsqaUBKTNV-1" parent="WIyWlLk6GJQsqaUBKTNV-0" />
        <mxCell id="aXrmk4FM_Ra0JbeD8-sf-4" value="1/0" style="edgeStyle=orthogonalEdgeStyle;rounded=0;orthogonalLoop=1;jettySize=auto;html=1;entryX=0;entryY=0.5;entryDx=0;entryDy=0;" edge="1" parent="WIyWlLk6GJQsqaUBKTNV-1" source="aXrmk4FM_Ra0JbeD8-sf-0" target="aXrmk4FM_Ra0JbeD8-sf-1">
          <mxGeometry relative="1" as="geometry" />
        </mxCell>
        <mxCell id="aXrmk4FM_Ra0JbeD8-sf-0" value="s1" style="ellipse;whiteSpace=wrap;html=1;aspect=fixed;" vertex="1" parent="WIyWlLk6GJQsqaUBKTNV-1">
          <mxGeometry x="70" y="210" width="80" height="80" as="geometry" />
        </mxCell>
        <mxCell id="aXrmk4FM_Ra0JbeD8-sf-5" value="1/0" style="edgeStyle=orthogonalEdgeStyle;rounded=0;orthogonalLoop=1;jettySize=auto;html=1;entryX=0;entryY=0.5;entryDx=0;entryDy=0;" edge="1" parent="WIyWlLk6GJQsqaUBKTNV-1" source="aXrmk4FM_Ra0JbeD8-sf-1" target="aXrmk4FM_Ra0JbeD8-sf-2">
          <mxGeometry relative="1" as="geometry" />
        </mxCell>
        <mxCell id="aXrmk4FM_Ra0JbeD8-sf-14" value="0/0" style="edgeStyle=orthogonalEdgeStyle;rounded=0;orthogonalLoop=1;jettySize=auto;html=1;exitX=0;exitY=0;exitDx=0;exitDy=0;entryX=1;entryY=0;entryDx=0;entryDy=0;" edge="1" parent="WIyWlLk6GJQsqaUBKTNV-1" source="aXrmk4FM_Ra0JbeD8-sf-1" target="aXrmk4FM_Ra0JbeD8-sf-0">
          <mxGeometry relative="1" as="geometry" />
        </mxCell>
        <mxCell id="aXrmk4FM_Ra0JbeD8-sf-1" value="s2" style="ellipse;whiteSpace=wrap;html=1;aspect=fixed;" vertex="1" parent="WIyWlLk6GJQsqaUBKTNV-1">
          <mxGeometry x="210" y="210" width="80" height="80" as="geometry" />
        </mxCell>
        <mxCell id="aXrmk4FM_Ra0JbeD8-sf-6" value="0/0" style="edgeStyle=orthogonalEdgeStyle;rounded=0;orthogonalLoop=1;jettySize=auto;html=1;entryX=0;entryY=0.5;entryDx=0;entryDy=0;" edge="1" parent="WIyWlLk6GJQsqaUBKTNV-1" source="aXrmk4FM_Ra0JbeD8-sf-2" target="aXrmk4FM_Ra0JbeD8-sf-3">
          <mxGeometry relative="1" as="geometry" />
        </mxCell>
        <mxCell id="aXrmk4FM_Ra0JbeD8-sf-15" value="1/0" style="edgeStyle=orthogonalEdgeStyle;rounded=0;orthogonalLoop=1;jettySize=auto;html=1;exitX=0;exitY=0;exitDx=0;exitDy=0;entryX=1;entryY=0;entryDx=0;entryDy=0;" edge="1" parent="WIyWlLk6GJQsqaUBKTNV-1" source="aXrmk4FM_Ra0JbeD8-sf-2" target="aXrmk4FM_Ra0JbeD8-sf-1">
          <mxGeometry relative="1" as="geometry" />
        </mxCell>
        <mxCell id="aXrmk4FM_Ra0JbeD8-sf-2" value="s3" style="ellipse;whiteSpace=wrap;html=1;aspect=fixed;" vertex="1" parent="WIyWlLk6GJQsqaUBKTNV-1">
          <mxGeometry x="340" y="210" width="80" height="80" as="geometry" />
        </mxCell>
        <mxCell id="aXrmk4FM_Ra0JbeD8-sf-3" value="s4" style="ellipse;whiteSpace=wrap;html=1;aspect=fixed;" vertex="1" parent="WIyWlLk6GJQsqaUBKTNV-1">
          <mxGeometry x="470" y="210" width="80" height="80" as="geometry" />
        </mxCell>
        <mxCell id="aXrmk4FM_Ra0JbeD8-sf-8" value="1/1" style="curved=1;endArrow=classic;html=1;rounded=0;exitX=0.5;exitY=0;exitDx=0;exitDy=0;entryX=0.5;entryY=0;entryDx=0;entryDy=0;" edge="1" parent="WIyWlLk6GJQsqaUBKTNV-1" source="aXrmk4FM_Ra0JbeD8-sf-3" target="aXrmk4FM_Ra0JbeD8-sf-0">
          <mxGeometry width="50" height="50" relative="1" as="geometry">
            <mxPoint x="270" y="110" as="sourcePoint" />
            <mxPoint x="320" y="60" as="targetPoint" />
            <Array as="points">
              <mxPoint x="360" y="70" />
              <mxPoint x="270" y="60" />
            </Array>
          </mxGeometry>
        </mxCell>
        <mxCell id="aXrmk4FM_Ra0JbeD8-sf-9" value="0/0" style="curved=1;endArrow=classic;html=1;rounded=0;entryX=0;entryY=1;entryDx=0;entryDy=0;exitX=0.5;exitY=1;exitDx=0;exitDy=0;" edge="1" parent="WIyWlLk6GJQsqaUBKTNV-1" source="aXrmk4FM_Ra0JbeD8-sf-0" target="aXrmk4FM_Ra0JbeD8-sf-0">
          <mxGeometry width="50" height="50" relative="1" as="geometry">
            <mxPoint x="60" y="360" as="sourcePoint" />
            <mxPoint x="110" y="310" as="targetPoint" />
            <Array as="points">
              <mxPoint x="110" y="360" />
              <mxPoint x="60" y="310" />
            </Array>
          </mxGeometry>
        </mxCell>
        <mxCell id="aXrmk4FM_Ra0JbeD8-sf-18" value="0/0" style="curved=1;endArrow=classic;html=1;rounded=0;exitX=0.5;exitY=1;exitDx=0;exitDy=0;entryX=1;entryY=1;entryDx=0;entryDy=0;" edge="1" parent="WIyWlLk6GJQsqaUBKTNV-1">
          <mxGeometry width="50" height="50" relative="1" as="geometry">
            <mxPoint x="511.72" y="290" as="sourcePoint" />
            <mxPoint x="140.00427124746213" y="278.28427124746213" as="targetPoint" />
            <Array as="points">
              <mxPoint x="461.72" y="330" />
              <mxPoint x="390" y="340" />
              <mxPoint x="270" y="310" />
            </Array>
          </mxGeometry>
        </mxCell>
      </root>
    </mxGraphModel>
  </diagram>
</mxfile>
